Coordinates
datacolumns 6
datarows 171
range 0 1.7
inDegrees=yes
Units are S.I. units (second, meters, Newtons, ...)
If the header above contains a line with 'inDegrees', this indicates whether rotational values are in degrees (yes) or radians (no).
endheader
time	foot_tx	hip_flexion_r	knee_angle_r	ankle_angle_r	lumbar
0	0.22852892	68.18557095	-79.83978828	-1.66842789	-25.29891227
0.01	0.22851644	68.21302545	-79.81379395	-1.68387553	-25.33054396
0.02	0.22850357	68.24123765	-79.78404575	-1.70109818	-25.36991327
0.03	0.22847758	68.21536822	-79.75120275	-1.71415045	-25.48041875
0.04	0.22845262	68.25844689	-79.7165956	-1.73471079	-25.52651559
0.05	0.22841727	68.25777809	-79.67712724	-1.75325769	-25.63652715
0.06	0.22838311	68.31607437	-79.63424475	-1.77956555	-25.69824389
0.07	0.22833475	68.31989013	-79.58526478	-1.80380663	-25.84215537
0.08	0.228289	68.39914941	-79.53162678	-1.8383509	-25.92558201
0.09	0.22822849	68.40925971	-79.47041611	-1.87028769	-26.11362881
0.1	0.22816803	68.46638455	-79.40355103	-1.91026251	-26.27849512
0.11	0.2281033	68.52715035	-79.330521	-1.95381311	-26.47020865
0.12	0.22803664	68.58424592	-79.25210181	-1.99969328	-26.6981823
0.13	0.22796753	68.63614443	-79.16897603	-2.04709366	-26.96453274
0.14	0.22789826	68.67623653	-79.08208798	-2.09443863	-27.27663601
0.15	0.22783036	68.70726775	-78.99272662	-2.14113697	-27.63249402
0.16	0.22776352	68.73030555	-78.90197784	-2.18632734	-28.03123299
0.17	0.22769626	68.74895973	-78.81100733	-2.22960465	-28.47011601
0.18	0.2276326	68.7761461	-78.72044136	-2.27228434	-28.93696962
0.19	0.22756853	68.8153768	-78.63077908	-2.3147936	-29.43006265
0.2	0.22750401	68.87444201	-78.54226547	-2.35828656	-29.94303498
0.21	0.22744232	68.96686688	-78.45480662	-2.40492677	-30.46345271
0.22	0.22738202	69.09679201	-78.36816217	-2.45580957	-30.98926255
0.23	0.22732411	69.2695354	-78.2818934	-2.51207099	-31.51660711
0.24	0.22726988	69.48413744	-78.19569675	-2.57377947	-32.04767328
0.25	0.22721842	69.73534618	-78.10948077	-2.63992818	-32.58847643
0.26	0.22717069	70.01520224	-78.0234285	-2.70867147	-33.14679419
0.27	0.22712497	70.31204022	-77.93779435	-2.77730481	-33.73398678
0.28	0.22708103	70.61649423	-77.85303056	-2.84326308	-34.35887493
0.29	0.22703395	70.92234204	-77.76983864	-2.90414649	-35.02789385
0.3	0.22699435	71.23864919	-77.68699649	-2.96145223	-35.73105692
0.31	0.22694035	71.57229335	-77.61136952	-3.01054539	-36.46115701
0.32	0.22688892	71.93419395	-77.53686006	-3.05648635	-37.20777533
0.33	0.22683151	72.33132279	-77.46657784	-3.09679845	-37.96134767
0.34	0.22676987	72.76827565	-77.39855432	-3.13232089	-38.71615562
0.35	0.22670099	73.26265787	-77.33403334	-3.16363326	-39.45193002
0.36	0.22663142	73.84430908	-77.27488313	-3.1928816	-40.13345969
0.37	0.22655591	74.52278253	-77.22286911	-3.21898816	-40.74691602
0.38	0.22647107	75.3271356	-77.1794928	-3.24159315	-41.25252476
0.39	0.22638439	76.21103293	-77.14124054	-3.25456167	-41.68936724
0.4	0.22629094	77.16081223	-77.10644833	-3.25273856	-42.06012072
0.41	0.22619738	78.15169792	-77.07650548	-3.22916686	-42.37751069
0.42	0.22609512	79.18069431	-77.05552244	-3.17774749	-42.63352388
0.43	0.22600656	80.24835235	-77.04143144	-3.09894698	-42.81756181
0.44	0.22592054	81.36691343	-77.04658373	-2.98554824	-42.90407992
0.45	0.22584471	82.53248069	-77.07265756	-2.83634934	-42.88976332
0.46	0.2257776	83.74710432	-77.12188833	-2.65027609	-42.76537136
0.47	0.22571728	84.99944499	-77.19674986	-2.42507368	-42.53787358
0.48	0.22567678	86.26706444	-77.28930435	-2.16342295	-42.22996397
0.49	0.22564377	87.54464431	-77.39783086	-1.86494645	-41.84468273
0.5	0.22562536	88.80858062	-77.51878173	-1.52988371	-41.40917144
0.51	0.22562329	90.05461742	-77.64518697	-1.16155342	-40.92766677
0.52	0.22564489	91.27398643	-77.77377976	-0.76240564	-40.41004329
0.53	0.22570085	92.45013906	-77.90208444	-0.33492335	-39.87496562
0.54	0.22580343	93.56791679	-78.02962281	0.11829696	-39.33841687
0.55	0.22595883	94.61916303	-78.15678151	0.59394058	-38.80732446
0.56	0.22616975	95.58208498	-78.28795057	1.09128689	-38.3047957
0.57	0.22642502	96.45092515	-78.42550552	1.607973	-37.83281105
0.58	0.22671157	97.20528423	-78.57429797	2.14359268	-37.41098564
0.59	0.22702303	97.81903248	-78.73950904	2.69784035	-37.06482953
0.6	0.22735779	98.27657925	-78.92458083	3.26897378	-36.8073519
0.61	0.2277263	98.5605733	-79.13128516	3.85428934	-36.65444801
0.62	0.22813359	98.64834257	-79.36178649	4.45337845	-36.6291391
0.63	0.22858562	98.60121639	-79.6081542	5.05538473	-36.6561376
0.64	0.22907622	98.38394426	-79.87042984	5.66410684	-36.77295027
0.65	0.2296059	98.03476546	-80.13697487	6.27215118	-36.93497574
0.66	0.23016392	97.57340569	-80.39570904	6.87587883	-37.11761371
0.67	0.23073812	97.02143463	-80.63496032	7.4715772	-37.29546814
0.68	0.23131426	96.38596896	-80.84192719	8.05675159	-37.46265869
0.69	0.23187738	95.67707323	-81.00323177	8.62785485	-37.61027247
0.7	0.23241527	94.90403169	-81.10717167	9.18106767	-37.73142919
0.71	0.2329158	94.07196174	-81.1426779	9.71240317	-37.82551297
0.72	0.23337638	93.19198968	-81.10062569	10.21675255	-37.88507528
0.73	0.23379216	92.26621362	-80.97331328	10.68998417	-37.9135307
0.74	0.23416868	91.30259269	-80.75502875	11.12714301	-37.90725456
0.75	0.23451305	90.30608031	-80.44204468	11.52393684	-37.86574118
0.76	0.23482807	89.2820631	-80.03375165	11.8776243	-37.78736072
0.77	0.23511996	88.23141528	-79.53101695	12.1863313	-37.6750629
0.78	0.23539031	87.16226711	-78.93622334	12.44856385	-37.52287095
0.79	0.23563858	86.07693976	-78.25394521	12.66489804	-37.33077788
0.8	0.23586608	84.97322467	-77.4904929	12.83738008	-37.10280362
0.81	0.23607233	83.85470493	-76.65204821	12.96791894	-36.83619948
0.82	0.23625697	82.72195816	-75.74470838	13.05912574	-36.53102499
0.83	0.23642109	81.57118246	-74.77424376	13.11427031	-36.19176537
0.84	0.23656852	80.4012829	-73.74595631	13.13624128	-35.82003383
0.85	0.23670326	79.20655706	-72.66485836	13.12834912	-35.42266631
0.86	0.236832	77.9871477	-71.53482182	13.09242711	-35.00064629
0.87	0.23696193	76.74411577	-70.35899418	13.02972075	-34.55437443
0.88	0.23709851	75.4689565	-69.14120889	12.9428478	-34.09536269
0.89	0.23725911	74.16108542	-67.88318207	12.8315438	-33.62634066
0.9	0.23743777	72.8064262	-66.58763311	12.69897318	-33.1652529
0.91	0.2376345	71.39866391	-65.25808071	12.54734931	-32.72090186
0.92	0.2378408	69.94232531	-63.9006362	12.37971331	-32.29039361
0.93	0.23805554	68.44862325	-62.52143686	12.19790484	-31.86361244
0.94	0.23826693	66.92947957	-61.12534597	12.00388838	-31.42978013
0.95	0.23846705	65.37749079	-59.71565745	11.80053867	-31.00066842
0.96	0.23865017	63.79427878	-58.29443184	11.5890619	-30.57700086
0.97	0.23881095	62.18557413	-56.86167854	11.36923572	-30.15511377
0.98	0.23895019	60.54748248	-55.41875358	11.14219643	-29.74194983
0.99	0.23906672	58.88364273	-53.96499582	10.90760364	-29.33595611
1	0.23916901	57.19484433	-52.49928314	10.66448261	-28.93887267
1.01	0.23926623	55.49047669	-51.02051571	10.41108196	-28.54291407
1.02	0.23936692	53.77811154	-49.52795849	10.14593748	-28.14265863
1.03	0.23947836	52.06285211	-48.02144525	9.86799232	-27.73581454
1.04	0.23960308	50.35203171	-46.50233681	9.57689976	-27.31805568
1.05	0.23974337	48.65830738	-44.97163952	9.2714739	-26.87871577
1.06	0.23989305	46.97836769	-43.43363986	8.95435073	-26.42481538
1.07	0.2400454	45.31796775	-41.89140276	8.62673935	-25.95216297
1.08	0.24019042	43.6772488	-40.34882848	8.29120305	-25.4621631
1.09	0.24031978	42.05549472	-38.80966026	7.95035366	-24.95657888
1.1	0.24042658	40.45506913	-37.27807481	7.60685881	-24.43387022
1.11	0.2405067	38.87643352	-35.75798922	7.26329028	-23.8949537
1.12	0.24055697	37.3205889	-34.25380294	6.92239717	-23.34099886
1.13	0.24057965	35.79772206	-32.76971278	6.58545664	-22.7647057
1.14	0.24057525	34.31939637	-31.30860284	6.25375286	-22.15194326
1.15	0.2405352	32.87916297	-29.87614578	5.93071419	-21.51888234
1.16	0.24045947	31.48957413	-28.47598617	5.61704206	-20.85510098
1.17	0.24034547	30.15385229	-27.11278147	5.31459668	-20.1631092
1.18	0.24019509	28.87679233	-25.79048402	5.02434209	-19.44373372
1.19	0.24001495	27.6657332	-24.5127525	4.74665815	-18.6955434
1.2	0.23980513	26.51805417	-23.2844456	4.4838064	-17.92821638
1.21	0.23957207	25.43888697	-22.10824728	4.23597889	-17.14167839
1.22	0.23931993	24.42870982	-20.98697111	4.00381446	-16.3419408
1.23	0.23905546	23.48495981	-19.92160644	3.78778528	-15.53328707
1.24	0.23878612	22.6058226	-18.91400244	3.58856587	-14.72106342
1.25	0.23852057	21.78741602	-17.96461626	3.40607429	-13.91256073
1.26	0.23827146	21.05629023	-17.07554851	3.23897973	-13.07928906
1.27	0.23804027	20.30844784	-16.23143158	3.08723949	-12.32977227
1.28	0.23783372	19.64120448	-15.44489687	2.95045245	-11.5580445
1.29	0.23764767	18.9978609	-14.70591653	2.82798387	-10.82275306
1.3	0.23747733	18.37722019	-14.0107884	2.71871833	-10.12080004
1.31	0.23731294	17.77623374	-13.35742903	2.62253294	-9.45327502
1.32	0.2371451	17.19175858	-12.74439069	2.53926272	-8.82361538
1.33	0.23698164	16.63053224	-12.16638026	2.46457659	-8.22438935
1.34	0.23681963	16.10102904	-11.62311091	2.39767898	-7.64685146
1.35	0.2366518	15.59853563	-11.11580188	2.34018419	-7.09620569
1.36	0.23648473	15.12277109	-10.6394694	2.28978638	-6.56792747
1.37	0.23631971	14.67203786	-10.19052972	2.24557421	-6.05838666
1.38	0.23615696	14.24327177	-9.76496532	2.20665873	-5.56459367
1.39	0.2359957	13.83283104	-9.35883764	2.17220668	-5.08429347
1.4	0.23582981	13.44353875	-8.9719476	2.14295276	-4.61048807
1.41	0.23566605	13.06366787	-8.5953503	2.11512073	-4.14923441
1.42	0.2354927	12.71643644	-8.23624039	2.09166029	-3.67613375
1.43	0.23532923	12.34549055	-7.87594749	2.06552869	-3.2464261
1.44	0.23515278	12.02078764	-7.53714839	2.04497707	-2.79205732
1.45	0.23498216	11.67187823	-7.20317527	2.02529848	-2.38473423
1.46	0.2348108	11.37867943	-6.89030262	2.00971357	-1.94388588
1.47	0.23464573	11.0532608	-6.58292306	1.9957921	-1.56255846
1.48	0.23447659	10.79447042	-6.30393461	1.98907625	-1.14136132
1.49	0.23432042	10.50150173	-6.02726164	1.98160355	-0.78458073
1.5	0.23416657	10.27247828	-5.77669883	1.97944734	-0.39383638
1.51	0.2340178	10.00191006	-5.53343493	1.97958652	-0.0803093
1.52	0.23386915	9.75896107	-5.31185404	1.98469917	0.22504938
1.53	0.23373155	9.52475316	-5.09922637	1.98884159	0.50805644
1.54	0.23359478	9.30404846	-4.90222323	1.99571343	0.77129316
1.55	0.23346047	9.09196593	-4.71586701	2.00327051	1.01377948
1.56	0.23332814	8.88566282	-4.53769825	2.01091701	1.23685298
1.57	0.2331972	8.68238935	-4.36468553	2.01785836	1.44289994
1.58	0.23306369	8.48030751	-4.1945508	2.02385098	1.63477275
1.59	0.23292309	8.23917391	-4.02097679	2.02904072	1.77309734
1.6	0.23277806	8.04862524	-3.85330777	2.03265766	1.95958939
1.61	0.23261918	7.81152098	-3.67956419	2.03589665	2.09065236
1.62	0.23245338	7.62360099	-3.50890526	2.03687408	2.27323415
1.63	0.2322777	7.38239696	-3.32757975	2.03543917	2.39658649
1.64	0.23209326	7.19356797	-3.14931881	2.03194956	2.57536408
1.65	0.2319122	6.95416957	-2.96378009	2.02681141	2.69385074
1.66	0.23173717	6.77291905	-2.78668465	2.02130135	2.86923163
1.67	0.23157472	6.5378515	-2.60810434	2.01719209	2.97537651
1.68	0.2314369	6.36774596	-2.44812684	2.01645855	3.13670789
1.69	0.23132721	6.1501482	-2.29661884	2.02112578	3.22761317
1.7	0.23125907	5.99903427	-2.17239004	2.0325873	3.36746723
